<svg width="66" height="66" viewBox="0 0 66 66" fill="none" xmlns="http://www.w3.org/2000/svg">
<path d="M65.3195 29.3733C65.185 29.3733 65.0658 29.27 65.0495 29.1326L64.5147 24.6345L57.6216 24.1948L57.5618 24.0259C56.5973 21.371 55.2144 18.907 53.4551 16.702L53.3438 16.5645L56.5629 10.4538L49.4454 4.84765L44.2619 9.41043L44.1011 9.33561C41.5462 8.13958 38.8266 7.37625 36.0179 7.06081C35.8673 7.04462 35.762 6.91015 35.7772 6.76053C35.7954 6.61292 35.9268 6.50676 36.0775 6.52192C38.8852 6.83534 41.6058 7.59057 44.1677 8.76842L49.4271 4.14398L57.2545 10.3062L53.9908 16.5028C55.6985 18.6715 57.0503 21.0839 58.0098 23.674L65.001 24.122L65.5884 29.0679C65.6066 29.2186 65.5005 29.3531 65.3498 29.3711L65.3195 29.3733ZM15.3797 35.309C15.2422 35.309 15.126 35.2079 15.1098 35.0704C13.9319 25.1522 21.0394 16.1247 30.9576 14.9438C35.762 14.3746 40.5008 15.7081 44.3032 18.7028C48.1027 21.6944 50.5121 25.9882 51.0812 30.7948C51.0995 30.9423 50.9933 31.0768 50.8456 31.0949C50.6959 31.1131 50.5616 31.007 50.5433 30.8563C49.9893 26.1975 47.6548 22.0312 43.9666 19.1264C40.2803 16.2227 35.6811 14.9286 31.0223 15.4827C21.4024 16.6261 14.5042 25.3847 15.6487 35.0056C15.6669 35.1533 15.5607 35.2876 15.4101 35.3059L15.3797 35.309ZM12.5246 49.6009C12.4437 49.6009 12.3669 49.5644 12.3123 49.4998C10.5521 47.2948 9.16191 44.8359 8.18121 42.1879L1.19096 41.7401L0.0151367 31.8452L6.70613 29.7726C7.03269 27.0266 7.78288 24.3656 8.93442 21.8572L4.30695 16.6009L10.4722 8.77349L16.6678 12.0381C18.8375 10.3295 21.2467 8.97873 23.8399 8.01825L24.288 1.02698L29.2339 0.437546C29.3814 0.419348 29.519 0.527527 29.5342 0.675138C29.5524 0.825781 29.4462 0.960248 29.2985 0.978447L24.8004 1.51126L24.3607 8.40649L24.1919 8.46612C21.5369 9.43166 19.073 10.8107 16.868 12.5709L16.7274 12.6821L10.6198 9.462L5.01366 16.5796L9.5734 21.7672L9.50162 21.9269C8.30558 24.4819 7.5392 27.2024 7.22681 30.0102L7.20557 30.186L0.608611 32.2315L1.67727 41.2274L8.56944 41.6673L8.63214 41.8362C9.59464 44.4911 10.9767 46.9561 12.7369 49.161C12.8299 49.2773 12.8117 49.4481 12.6954 49.5413C12.6439 49.5796 12.5842 49.6009 12.5246 49.6009ZM16.7638 61.721L12.8501 58.6384C12.7339 58.5455 12.7137 58.3746 12.8067 58.2553C12.8967 58.139 13.0675 58.1188 13.1868 58.2118L16.7456 61.0144L21.9302 56.4515L22.0929 56.5264C24.6478 57.7224 27.3674 58.4859 30.1761 58.8023C30.3238 58.8174 30.432 58.9519 30.4147 59.1026C30.3986 59.2501 30.2672 59.3582 30.1144 59.3402C27.3059 59.0267 24.5851 58.2714 22.0232 57.0937L16.7638 61.721ZM36.9268 65.4256C36.7893 65.4256 36.673 65.3244 36.6569 65.1868C36.6387 65.0373 36.7449 64.9028 36.8924 64.8846L41.3915 64.3507L41.8333 57.4555L41.999 57.3969C44.6571 56.4313 47.121 55.0513 49.3241 53.2911L49.4634 53.1799L55.5743 56.4001L61.1782 49.2824L56.6176 44.0957L56.6924 43.935C57.8854 41.3802 58.6518 38.6604 58.9672 35.8519C58.9833 35.7042 59.1179 35.598 59.2654 35.6143C59.4151 35.6295 59.5212 35.764 59.5061 35.9115C59.1907 38.7222 58.4344 41.4429 57.2596 44.0049L61.885 49.2612L55.7218 57.0905L49.5232 53.8249C47.3565 55.5326 44.9442 56.8844 42.351 57.8437L41.9061 64.8351L36.957 65.4256H36.9268Z" fill="black"/>
</svg>
