<svg width="119" height="119" viewBox="0 0 119 119" fill="none" xmlns="http://www.w3.org/2000/svg">
<path d="M87.0278 19.641L86.9787 19.6389C86.8321 19.6108 86.7379 19.4694 86.763 19.323L89.0792 7.00631L73.2216 0.892132L66.5756 11.7261L66.4011 11.701C61.242 10.9848 56.0386 11.1132 50.9315 12.0832C50.7851 12.1113 50.6437 12.014 50.6175 11.8676C50.5894 11.7241 50.6848 11.5827 50.8313 11.5546C55.9392 10.5835 61.1416 10.4481 66.3007 11.1433L72.9958 0.227051L89.6911 6.66523L87.2926 19.4232C87.2695 19.5516 87.1563 19.641 87.0278 19.641ZM27.3386 63.3319C27.2052 63.3319 27.0898 63.2286 27.0738 63.0932C24.9421 45.0266 37.9087 28.5959 55.9744 26.4644C64.7239 25.432 73.3558 27.8717 80.2736 33.3288C87.1923 38.7889 91.571 46.6135 92.6033 55.366C92.6214 55.5145 92.5161 55.6479 92.3666 55.6658C92.2181 55.6809 92.0865 55.5757 92.0686 55.4301C91.0544 46.8211 86.7449 39.1231 79.9396 33.7531C73.1372 28.3833 64.6445 25.9848 56.0366 26.999C38.2658 29.0946 25.5127 45.2573 27.6085 63.0289C27.6235 63.1774 27.5181 63.3109 27.3716 63.329L27.3386 63.3319ZM5.43285 83.6266C5.32751 83.6266 5.23021 83.5674 5.18608 83.468L1.55769 75.2885L12.1309 68.0647C11.1909 63.0129 11.0625 57.8667 11.7527 52.7668L0.836426 46.0719L7.27162 29.3766L19.8581 31.7419C22.7722 27.4965 26.3194 23.7679 30.4072 20.656L27.4228 8.20305L35.5994 4.57669C35.736 4.5155 35.8955 4.57969 35.9565 4.71311C36.0158 4.84955 35.9546 5.00804 35.8182 5.07023L28.0497 8.51403L31.0131 20.8739L30.8716 20.9792C26.7246 24.1119 23.1343 27.8848 20.2042 32.1893L20.1038 32.3348L7.61368 29.9885L1.4985 45.8461L12.3335 52.4919L12.3104 52.6664C11.5942 57.8226 11.7226 63.0289 12.6906 68.136L12.7237 68.3086L2.23281 75.4811L5.67661 83.2494C5.73882 83.3858 5.67661 83.5443 5.54119 83.6034C5.50507 83.6196 5.46896 83.6266 5.43285 83.6266ZM83.9662 113.904C83.8639 113.904 83.7635 113.845 83.7204 113.745C83.6613 113.609 83.7204 113.45 83.8558 113.391L91.6241 109.944L88.664 97.5863L88.8054 97.4821C92.9494 94.3461 96.5396 90.5734 99.4727 86.2699L99.5702 86.1235L112.061 88.4729L118.176 72.6121L107.342 65.9692L107.367 65.7947C108.083 60.6354 107.954 55.4301 106.984 50.3242L106.95 50.1497L117.444 42.9802L110.461 27.2377C110.402 27.1013 110.464 26.9418 110.6 26.8837C110.736 26.8215 110.896 26.8837 110.955 27.0191L118.116 43.1697L107.546 50.3964C108.486 55.4472 108.613 60.5913 107.924 65.6944L118.841 72.3893L112.402 89.0838L99.8169 86.7192C96.9047 90.9636 93.3556 94.6903 89.2697 97.803L92.2541 110.255L84.0746 113.882C84.0415 113.899 84.0024 113.904 83.9662 113.904ZM46.6782 118.231L29.9839 111.796L32.3483 99.2094C28.0578 96.2622 24.293 92.667 21.1572 88.522C21.0669 88.4006 21.09 88.234 21.2113 88.1437C21.3298 88.0545 21.4983 88.0776 21.5865 88.1959C24.7213 92.3428 28.4943 95.9301 32.7976 98.8635L32.9442 98.9636L30.5948 111.454L46.4556 117.569L53.0983 106.734L53.273 106.757C58.4321 107.473 63.6383 107.345 68.7435 106.377C68.8899 106.349 69.0313 106.444 69.0594 106.591C69.0875 106.737 68.9902 106.878 68.8437 106.907C63.7377 107.875 58.5355 108.013 53.3731 107.315L46.6782 118.231Z" fill="black"/>
</svg>
